<svg xmlns="http://www.w3.org/2000/svg" width="150" height="40" viewBox="0 0 150 40">
  <g fill="none" fill-rule="evenodd">
    <path fill="#1890FF" d="M30.5,20 C30.5,25.799 25.799,30.5 20,30.5 C14.201,30.5 9.5,25.799 9.5,20 C9.5,14.201 14.201,9.5 20,9.5 C25.799,9.5 30.5,14.201 30.5,20 Z M32.5,20 C32.5,26.904 26.904,32.5 20,32.5 C13.096,32.5 7.5,26.904 7.5,20 C7.5,13.096 13.096,7.5 20,7.5 C26.904,7.5 32.5,13.096 32.5,20 Z"/>
    <circle cx="20" cy="20" r="6" fill="#1890FF"/>
    <path fill="#1890FF" d="M40,17.5 C41.381,17.5 42.5,18.619 42.5,20 C42.5,21.381 41.381,22.5 40,22.5 L35,22.5 C33.619,22.5 32.5,21.381 32.5,20 C32.5,18.619 33.619,17.5 35,17.5 L40,17.5 Z"/>
    <path fill="#1890FF" d="M55,15 L60,15 L60,25 L55,25 L55,15 Z M55,10 L60,10 L60,13 L55,13 L55,10 Z"/>
    <path fill="#1890FF" d="M65,15 L70,15 L70,16.5 C70.5,15.5 72,14.5 74,14.5 C77.5,14.5 80,17 80,20.5 L80,25 L75,25 L75,21 C75,19.5 74,18.5 72.5,18.5 C71,18.5 70,19.5 70,21 L70,25 L65,25 L65,15 Z"/>
    <path fill="#1890FF" d="M85,15 L90,15 L90,16.5 C90.5,15.5 92,14.5 94,14.5 C97.5,14.5 100,17 100,20.5 L100,25 L95,25 L95,21 C95,19.5 94,18.5 92.5,18.5 C91,18.5 90,19.5 90,21 L90,25 L85,25 L85,15 Z"/>
    <path fill="#1890FF" d="M105,20 C105,17 107.5,14.5 111,14.5 C114.5,14.5 117,17 117,20 C117,23 114.5,25.5 111,25.5 C107.5,25.5 105,23 105,20 Z M112,20 C112,18.5 111.5,18 110.5,18 C109.5,18 109,18.5 109,20 C109,21.5 109.5,22 110.5,22 C111.5,22 112,21.5 112,20 Z"/>
    <path fill="#1890FF" d="M120,10 L125,10 L125,16.5 C125.5,15.5 127,14.5 129,14.5 C132.5,14.5 135,17 135,20.5 L135,25 L130,25 L130,21 C130,19.5 129,18.5 127.5,18.5 C126,18.5 125,19.5 125,21 L125,25 L120,25 L120,10 Z"/>
    <path fill="#1890FF" d="M140,15 L145,15 L145,25 L140,25 L140,15 Z M140,10 L145,10 L145,13 L140,13 L140,10 Z"/>
    <path fill="#1890FF" d="M150,10 L155,10 L155,25 L150,25 L150,10 Z"/>
  </g>
</svg>